<?xml version="1.0" standalone="no"?>
<!DOCTYPE svg PUBLIC "-//W3C//DTD SVG 20010904//EN"
 "http://www.w3.org/TR/2001/REC-SVG-20010904/DTD/svg10.dtd">
<svg version="1.0" xmlns="http://www.w3.org/2000/svg"
 width="1520.000000pt" height="1520.000000pt" viewBox="0 0 1520.000000 1520.000000"
 preserveAspectRatio="xMidYMid meet">
<metadata>
Created by potrace 1.14, written by Peter Selinger 2001-2017
</metadata>
<g transform="translate(0.000000,1520.000000) scale(0.100000,-0.100000)"
fill="#000000" stroke="none">
<path d="M7278 15196 c-1 -2 -61 -7 -133 -11 -138 -7 -150 -8 -260 -19 -93 -9
-165 -16 -195 -21 -14 -2 -50 -7 -80 -10 -30 -3 -66 -8 -80 -10 -14 -2 -70
-12 -125 -20 -55 -9 -111 -18 -125 -20 -14 -2 -72 -13 -130 -25 -58 -12 -118
-24 -135 -26 -47 -9 -413 -100 -496 -124 -296 -86 -693 -226 -867 -306 -29
-13 -55 -24 -57 -24 -5 0 -68 -28 -200 -90 -44 -20 -84 -38 -90 -40 -19 -6
-299 -153 -378 -197 -42 -24 -99 -55 -125 -70 -26 -14 -71 -41 -100 -60 -29
-18 -55 -33 -58 -33 -9 0 -413 -269 -501 -334 -135 -99 -319 -241 -376 -291
-7 -6 -28 -23 -47 -39 -36 -29 -134 -115 -227 -199 -179 -160 -398 -380 -563
-567 -41 -47 -80 -91 -87 -98 -7 -7 -29 -34 -50 -60 -21 -26 -46 -56 -57 -67
-10 -11 -30 -36 -45 -55 -14 -19 -32 -41 -39 -49 -18 -18 -230 -304 -273 -366
-19 -27 -36 -52 -39 -55 -12 -12 -143 -215 -217 -335 -210 -343 -371 -658
-528 -1030 -91 -215 -120 -293 -200 -530 -74 -220 -118 -374 -181 -625 -6 -27
-44 -194 -48 -215 -2 -11 -9 -40 -15 -65 -10 -44 -45 -241 -56 -310 -24 -162
-35 -244 -40 -297 -4 -34 -8 -70 -10 -80 -1 -10 -6 -52 -10 -93 -3 -41 -8 -95
-11 -120 -19 -182 -26 -834 -11 -1050 16 -238 18 -266 22 -295 3 -16 7 -57 10
-90 3 -33 8 -75 10 -93 3 -18 8 -54 11 -80 3 -26 7 -60 10 -77 3 -16 7 -41 9
-55 9 -70 16 -117 20 -130 2 -8 7 -35 10 -60 4 -24 8 -47 10 -50 2 -3 6 -26
10 -50 3 -25 11 -65 17 -90 5 -25 12 -56 14 -70 41 -228 209 -807 311 -1070
37 -96 74 -191 88 -225 78 -187 151 -353 160 -365 6 -8 22 -40 35 -70 37 -81
130 -263 215 -415 116 -209 364 -592 515 -795 51 -69 96 -127 99 -130 3 -3 19
-23 36 -45 32 -43 201 -250 225 -275 8 -9 43 -48 78 -87 99 -112 108 -121 227
-243 335 -343 590 -562 1035 -890 71 -52 187 -131 205 -139 12 -5 27 -16 34
-25 7 -9 18 -16 23 -16 5 0 24 -11 42 -25 18 -14 36 -25 40 -25 4 0 22 -11 39
-24 36 -27 293 -178 407 -239 726 -390 1490 -656 2300 -801 113 -20 140 -25
181 -30 19 -3 50 -7 69 -10 36 -6 246 -31 335 -41 54 -6 113 -10 300 -22 227
-15 958 -7 1054 12 9 1 56 6 105 10 49 4 96 8 105 10 9 1 43 6 76 9 69 8 74 9
256 36 76 10 172 27 215 36 44 9 91 18 107 20 15 2 31 5 35 8 4 2 28 7 52 11
25 3 53 8 62 11 9 3 25 7 35 9 17 3 92 21 123 30 8 2 60 15 115 28 280 69 795
242 1020 342 17 7 89 39 160 70 159 70 474 226 572 283 39 23 73 42 76 42 14
0 528 320 582 363 6 4 73 53 150 108 140 101 361 273 429 334 6 6 29 25 51 44
243 207 503 462 720 706 44 50 82 92 85 95 7 7 101 119 120 144 8 10 23 28 33
38 31 33 310 408 373 501 80 120 234 358 242 377 4 8 32 58 63 110 87 147 261
482 322 620 8 19 26 60 40 90 47 103 125 295 162 395 20 55 45 120 54 145 89
221 255 834 310 1145 6 33 13 70 15 81 5 25 8 41 35 224 11 74 23 160 26 190
9 81 14 129 20 180 21 171 30 414 29 755 0 382 -8 531 -38 790 -2 17 -7 59
-11 95 -9 75 -10 85 -20 160 -4 30 -8 57 -10 60 -2 3 -6 29 -10 59 -4 30 -9
63 -11 75 -2 12 -7 37 -10 56 -34 213 -142 671 -199 845 -7 22 -23 74 -35 115
-12 41 -24 82 -27 90 -87 250 -150 418 -194 517 -10 24 -19 45 -19 47 0 2 -30
71 -66 153 -101 229 -247 515 -351 691 -24 41 -43 75 -43 77 0 4 -149 243
-196 315 -16 25 -32 46 -36 48 -5 2 -8 9 -8 16 0 7 -9 21 -20 31 -11 10 -20
22 -20 26 0 10 -159 230 -258 359 -78 101 -278 341 -353 424 -258 285 -586
598 -839 801 -25 20 -54 44 -65 54 -47 42 -410 312 -466 346 -9 6 -56 37 -105
69 -351 232 -739 442 -1159 628 -49 22 -106 46 -125 53 -19 7 -82 32 -140 55
-460 186 -1143 368 -1625 434 -22 3 -51 8 -65 10 -21 4 -103 14 -240 31 -56 7
-149 15 -225 21 -38 3 -92 7 -120 10 -59 5 -801 14 -807 10z"/>
</g>
</svg>
